<svg width="447" height="447" viewBox="0 0 447 447" fill="none" xmlns="http://www.w3.org/2000/svg">
<path style="opacity: 0" id = "loading-logo-pt1" d="M180.796 221.601C181.872 220.785 184.413 221.406 184.103 222.693C181.619 235.358 170.506 247.469 178.465 259.26C179.583 260.916 181.143 262.249 182.977 263.114C183.796 263.499 184.67 263.859 185.593 264.202C187.559 264.931 189.752 265.58 192.128 266.23C199.392 268.217 204.118 264.028 207.255 257.406C208.303 255.2 209.172 252.721 209.9 250.109C213.331 237.184 213.998 223.637 214.465 210.806C214.503 208.675 214.519 206.519 214.511 204.337C214.436 182.546 212.086 158.623 208.232 137.916C207.963 136.464 207.698 135.023 207.396 133.608C204.396 119.511 204.404 118.497 203.096 111.61C202.636 109.222 202.123 106.8 201.507 104.441C198.431 92.6535 192.91 82.4843 180.046 86.9212C178.275 87.5668 177.054 88.4857 176.263 89.6777C173.863 92.6908 174.815 96.6558 175.924 99.9007C177.915 105.732 184.707 111.721 189.086 123.91C195.435 141.571 203.518 169.008 193.047 192.699C192.095 194.851 190.99 196.974 189.723 199.056C178.801 214.598 163.528 225.566 148.334 235.723C145.83 237.324 143.864 238.421 142.589 238.93C141.133 239.514 139.932 238.818 139.357 237.395C135.669 228.293 155.664 163.114 156.095 161.21C160.875 142.349 168.842 117.839 150.255 103.646C145.607 99.7766 135.024 99.611 132.714 107.794C127.549 126.1 132.958 143.727 134.875 162.125C136.431 177.045 135.235 198.257 133.902 208.095C132.155 220.992 129.357 233.947 122.346 246.124C122.296 246.21 122.239 246.297 122.176 246.38C120.951 247.974 119.631 249.53 118.211 250.949C113.87 255.287 108.568 258.35 101.983 257.203C101.9 257.187 101.813 257.17 101.73 257.15C93.8747 255.138 92.5544 244.886 91.648 238.078C91.3542 236.211 91.1058 234.22 90.9072 232.105C90.7747 230.731 90.663 229.303 90.5719 227.826C90.4809 226.373 90.4105 224.866 90.3567 223.314C90.3567 223.264 90.3567 223.215 90.3567 223.165C90.5678 217.801 90.5678 212.685 90.4353 207.768C90.4353 207.727 90.4353 207.686 90.4353 207.64C90.5057 205.79 90.5967 203.89 90.7126 201.945C91.6149 186.453 93.854 168.043 97.6122 147.084C98.0302 144.754 98.4648 142.395 98.9283 140.002C101.122 126.861 105.104 114.606 107.231 101.879C107.55 100.534 107.877 99.1847 108.208 97.8271C108.543 96.4696 108.886 95.1038 109.23 93.7338C111.809 82.1656 104.019 79.0904 97.6287 75.7917C67.8784 60.4281 74.6537 127.698 73.4121 149.34C70.8501 241.567 80.4109 280.062 107.099 276.52C108.473 276.337 109.892 276.044 111.357 275.638C111.419 275.621 111.486 275.601 111.548 275.58C127.209 270.088 140.64 260.858 152.655 249.935C154.373 248.375 156.062 246.782 157.758 245.155C164.857 238.467 170.643 233.951 176.268 226.526C178.064 224.444 179.235 222.776 180.787 221.592L180.796 221.601Z" fill="black"/>
<path style="opacity: 0" id = "loading-logo-pt2" d="M345.705 251.334C335.891 250.539 323.976 259.347 312.532 269.628C310.624 271.341 308.732 273.096 306.853 274.826C291.556 287.595 283.208 292.632 268.606 290.082C263.295 289.449 252.836 284.867 247.423 290.807C243.689 294.896 242.448 300.45 241.483 305.64C241.165 307.371 240.949 309.121 240.825 310.88C240.486 316.927 240.275 323.044 240.598 329.067C240.705 331.074 240.875 333.073 241.103 335.072C241.852 349.099 248.147 363.208 259.728 370.803C262.145 372.388 265.096 373.046 267.935 372.517C267.952 372.517 267.968 372.508 267.985 372.508C271.362 371.867 275.025 369.454 276.407 366.532C281.055 356.698 273.295 347.638 268.494 341.218C267.534 339.935 266.623 338.619 265.828 337.241C264.872 335.589 264.082 333.851 263.564 331.98C263.01 330.345 262.654 328.591 262.567 326.662C262.455 324.253 263.022 322.217 264.057 320.462C265.092 318.707 266.594 317.242 268.345 315.971C269.512 315.119 270.791 314.357 272.119 313.645C287.723 306.472 297.002 305.918 308.384 291.299C309.908 289.342 311.443 287.355 312.937 285.356C321.89 273.374 329.96 261.673 337.824 261.301C354.09 260.535 349.922 276.705 340.937 297.11C340.295 298.567 339.608 300.036 338.942 301.543C330.151 321.439 318.769 337.613 315.135 358.308C314.704 360.617 314.498 362.753 314.551 364.678C314.609 366.602 314.932 368.32 315.565 369.785C318.032 375.492 327.237 376.329 332.882 375.906C334.766 375.766 336.252 375.484 336.959 375.199C341.077 373.887 343.888 370.998 345.448 367.889C351.118 356.574 351.23 321.277 359.177 299.217C360.05 296.816 360.874 294.441 361.615 292.106C364.574 282.769 366.192 274.069 364.367 267.534C362.525 262.05 359.587 252.46 345.705 251.334V251.334Z" fill="black"/>
<path style="opacity: 0" id = "loading-logo-pt3" d="M354.403 164.003C349.039 165.034 341.374 167.368 341.122 167.451C302.787 180.128 316.719 161.723 331.184 140.291C331.987 139.099 332.811 137.891 333.663 136.662C344.16 119.187 366.071 103.915 360.761 83.332C353.505 54.9724 316.744 70.5263 292.564 74.3217C292.262 74.3672 291.96 74.3548 291.658 74.3962C289.51 74.7149 287.32 74.9839 285.114 75.224C256.763 78.3157 225.187 76.7553 227.166 114.32C238.539 229.253 225.717 266.867 214.265 309.837C212.953 315.23 211.281 320.416 209.364 325.296C208.772 326.81 208.127 328.284 207.531 329.737C204.501 337.108 192.651 362.132 178.84 355.555C171.034 351.652 179.543 333.482 184.022 325.002C192.059 309.787 205.209 300.715 191.902 284.039C191.567 283.621 191.203 283.199 190.805 282.777C188.43 280.256 185.404 278.46 182.143 277.285C161.821 269.975 137.832 276.755 119.186 286.34C117.191 287.367 115.233 288.431 113.321 289.552H113.317C89.742 305.094 73.9066 326.434 84.7174 353.498C85.4252 355.269 86.3192 356.809 87.1469 358.295C89.6344 362.748 92.395 366.345 96.2566 370.554C96.4263 370.736 96.6084 370.914 96.7864 371.092C108.247 382.209 124.289 382.545 137.422 376.179C139.227 375.318 140.952 374.329 142.616 373.207C142.927 372.996 143.212 372.752 143.502 372.512C148.659 368.199 152.152 359.206 149.288 349.893C148.249 346.52 147.26 344.43 146.163 342.7C145.067 340.97 143.345 340.092 140.174 340.303C138.635 340.407 136.789 341.081 134.835 342.244C132.882 343.407 130.816 345.055 128.813 347.112C121.715 353.916 109.124 366.184 100.495 361.536C97.8377 359.988 95.7724 357.773 94.2162 355.191C93.438 353.899 92.7841 352.517 92.2543 351.097C84.5601 329.662 111.119 310.408 127.737 300.731C129.72 299.697 131.748 298.728 133.821 297.851C137.972 296.096 142.322 294.693 146.97 293.807C146.97 293.807 146.97 293.807 146.975 293.807C153.878 292.429 160.248 293.145 166.225 296.464H166.233C173.534 301.116 173.534 310.408 171.767 318.019C171.382 320.457 170.868 322.816 170.161 325.589C169.453 328.367 168.551 331.562 167.404 335.647C167.404 335.647 166.419 339.264 165.372 344.45C165.111 345.746 164.842 347.141 164.586 348.602C162.243 358.874 163.799 372.028 176.853 374.809C179.179 375.306 181.431 375.426 183.6 375.223C184.978 375.095 186.327 374.83 187.639 374.449C232.087 362.645 237.467 247.187 237.467 247.187C237.836 242.861 238.138 238.089 238.341 232.825C241.023 162.894 237.024 115.752 271.572 97.9754C272.561 97.4663 273.993 96.7627 275.76 95.9391C277.432 95.1568 279.411 94.2628 281.609 93.3026C281.861 93.1909 282.122 93.0957 282.387 93.0129C300.656 87.1936 321.714 78.7213 338.195 83.9943C360.769 91.9616 319.649 142.228 318.892 143.416C309.033 158.875 294.592 174.197 267.313 184.325C257.21 187.599 257.81 187.504 257.81 187.504C255.351 188.145 253.307 190.815 255.236 194.316C260.297 203.492 279.167 194.817 287.709 194.813C289.145 194.883 291.67 195.5 292.303 198.865C292.324 198.981 292.349 199.097 292.365 199.213C292.37 199.242 292.378 199.271 292.382 199.3C293.843 207.971 289.841 218.893 285.027 230.089C283.616 234.037 279.258 241.934 275.173 248.209C275.173 248.209 275.173 248.209 275.173 248.213C269.833 256.42 265.5 263.891 269.809 271.9C273.132 278.079 282.014 274.603 287.734 271.238C293.586 267.798 296.496 263.552 298.065 258.999C298.069 258.987 298.073 258.982 298.077 258.97C300.407 253.527 301.719 232.613 301.719 232.613C304.91 196.622 300.54 194.056 360.868 186.283C364.113 185.865 369.456 185.641 372.726 185.509C383.955 185.045 392.572 155.742 354.412 164.007L354.403 164.003Z" fill="black"/>
</svg>
