<svg width="3049" height="3386" viewBox="0 0 3049 3386" fill="none" xmlns="http://www.w3.org/2000/svg">
<rect x="-337" width="3386" height="3386" rx="4" fill="white"/>
<path d="M1202.31 1681.07C1209.28 1675.81 1225.68 1679.83 1223.69 1688.13C1207.65 1769.94 1135.83 1848.2 1187.26 1924.37C1194.48 1935.07 1204.56 1943.68 1216.4 1949.28C1221.68 1951.78 1227.32 1954.1 1233.3 1956.32C1246 1961.03 1260.19 1965.23 1275.53 1969.42C1322.45 1982.26 1352.99 1955.21 1373.27 1912.42C1380.04 1898.16 1385.65 1882.15 1390.37 1865.27C1412.54 1781.76 1416.83 1694.24 1419.87 1611.36C1420.12 1597.6 1420.24 1583.66 1420.17 1569.59C1419.69 1428.8 1404.51 1274.24 1379.61 1140.47C1377.85 1131.09 1376.16 1121.79 1374.22 1112.66C1354.82 1021.59 1354.89 1015.03 1346.43 970.543C1343.47 955.137 1340.13 939.459 1336.16 924.232C1316.29 848.078 1280.63 782.39 1197.52 811.038C1186.09 815.211 1178.19 821.144 1173.07 828.858C1157.55 848.303 1163.73 873.951 1170.88 894.907C1183.74 932.579 1227.62 971.265 1255.93 1050.01C1296.96 1164.11 1349.18 1341.39 1281.53 1494.42C1275.37 1508.34 1268.24 1522.06 1260.05 1535.5C1189.49 1635.91 1090.83 1706.76 992.654 1772.38C976.458 1782.73 963.758 1789.79 955.547 1793.11C946.14 1796.88 938.38 1792.39 934.658 1783.18C910.837 1724.4 1040.03 1303.29 1042.8 1290.98C1073.7 1169.12 1125.18 1010.76 1005.06 919.067C975.036 894.05 906.642 893.013 891.731 945.865C858.345 1064.16 893.31 1178.03 905.694 1296.86C915.732 1393.25 908.018 1530.31 899.401 1593.88C888.099 1677.21 870.03 1760.9 824.735 1839.56C824.396 1840.12 824.035 1840.68 823.629 1841.2C815.711 1851.49 807.185 1861.55 798.004 1870.73C769.942 1898.75 735.699 1918.55 693.178 1911.13C692.637 1911.04 692.073 1910.93 691.554 1910.79C640.799 1897.8 632.272 1831.57 626.407 1787.58C624.512 1775.52 622.911 1762.66 621.602 1748.99C620.745 1740.1 620.023 1730.9 619.437 1721.35C618.85 1711.97 618.377 1702.25 618.061 1692.21C618.061 1691.89 618.061 1691.58 618.061 1691.26C619.437 1656.61 619.437 1623.57 618.58 1591.78C618.58 1591.51 618.58 1591.24 618.58 1590.97C619.031 1579.02 619.64 1566.74 620.362 1554.18C626.182 1454.11 640.641 1335.17 664.936 1199.75C667.643 1184.71 670.462 1169.46 673.44 1154.01C687.606 1069.12 713.345 989.921 727.082 907.698C729.135 899.013 731.255 890.283 733.398 881.508C735.564 872.733 737.775 863.913 740.008 855.048C756.678 780.314 706.329 760.441 665.048 739.124C472.834 639.87 516.619 1074.47 508.588 1214.3C492.031 1810.14 553.794 2058.86 726.225 2035.97C735.113 2034.79 744.271 2032.9 753.745 2030.28C754.151 2030.17 754.58 2030.03 754.986 2029.9C856.18 1994.42 942.959 1934.77 1020.58 1864.21C1031.68 1854.13 1042.6 1843.82 1053.54 1833.33C1099.4 1790.13 1136.78 1760.94 1173.12 1712.99C1184.71 1699.54 1192.29 1688.76 1202.33 1681.11L1202.31 1681.07Z" fill="#C21521"/>
<path d="M2267.76 1873.17C2204.37 1868.02 2127.36 1924.94 2053.44 1991.35C2041.12 2002.42 2028.87 2013.75 2016.76 2024.94C1917.93 2107.43 1863.97 2139.96 1769.64 2123.49C1735.33 2119.38 1667.77 2089.81 1632.78 2128.18C1608.67 2154.62 1600.63 2190.49 1594.41 2224.03C1592.33 2235.22 1590.96 2246.52 1590.15 2257.87C1587.96 2296.94 1586.58 2336.46 1588.66 2375.37C1589.36 2388.34 1590.44 2401.24 1591.93 2414.17C1596.78 2504.81 1637.45 2595.96 1712.25 2645C1727.86 2655.24 1746.92 2659.48 1765.28 2656.08C1765.4 2656.08 1765.51 2656.03 1765.62 2656.01C1787.43 2651.86 1811.12 2636.29 1820.03 2617.41C1850.06 2553.89 1799.91 2495.35 1768.89 2453.87C1762.69 2445.57 1756.82 2437.07 1751.68 2428.18C1745.52 2417.51 1740.4 2406.27 1737.06 2394.18C1733.5 2383.63 1731.2 2372.28 1730.61 2359.83C1729.89 2344.26 1733.57 2331.11 1740.24 2319.79C1746.92 2308.46 1756.64 2298.97 1767.95 2290.78C1775.5 2285.27 1783.76 2280.36 1792.33 2275.75C1893.14 2229.42 1953.1 2225.81 2026.61 2131.36C2036.47 2118.71 2046.4 2105.87 2056.03 2092.97C2113.87 2015.55 2166.02 1939.96 2216.82 1937.57C2321.92 1932.63 2294.98 2037.12 2236.92 2168.94C2232.77 2178.35 2228.33 2187.85 2224.04 2197.57C2167.24 2326.1 2093.7 2430.59 2070.24 2564.31C2067.47 2579.22 2066.11 2593.03 2066.47 2605.46C2066.83 2617.89 2068.93 2628.99 2073.02 2638.46C2088.94 2675.32 2148.43 2680.76 2184.9 2678C2197.06 2677.1 2206.67 2675.27 2211.25 2673.42C2237.87 2664.94 2256.03 2646.29 2266.09 2626.21C2302.72 2553.1 2303.44 2325.09 2354.78 2182.55C2360.42 2167.05 2365.75 2151.69 2370.53 2136.62C2389.66 2076.3 2400.1 2020.09 2388.3 1977.86C2376.39 1942.42 2357.4 1880.45 2267.73 1873.19L2267.76 1873.17Z" fill="#C21521"/>
<path d="M2323.94 1308.96C2289.29 1315.61 2239.76 1330.7 2238.13 1331.24C1990.47 1413.15 2080.45 1294.22 2173.93 1155.79C2179.12 1148.1 2184.44 1140.29 2189.95 1132.33C2257.76 1019.43 2399.33 920.759 2365 787.782C2318.12 604.545 2080.61 705.04 1924.4 729.583C1922.46 729.899 1920.5 729.786 1918.53 730.079C1904.64 732.132 1890.52 733.869 1876.26 735.425C1693.11 755.411 1489.08 745.306 1501.87 988.004C1575.34 1730.56 1492.51 1973.57 1418.52 2251.17C1410.06 2286.02 1399.23 2319.52 1386.87 2351.03C1383.04 2360.82 1378.89 2370.34 1375.03 2379.72C1355.47 2427.37 1278.91 2589.04 1189.65 2546.54C1139.21 2521.32 1194.21 2403.93 1223.15 2349.16C1275.05 2250.85 1360.05 2192.27 1274.06 2084.51C1271.89 2081.8 1269.53 2079.08 1266.95 2076.35C1251.61 2060.06 1232.03 2048.44 1210.99 2040.86C1079.68 1993.63 924.731 2037.43 804.228 2099.35C791.347 2105.99 778.692 2112.87 766.331 2120.09H766.308C613.998 2220.49 511.699 2358.36 581.515 2533.21C586.095 2544.64 591.869 2554.59 597.216 2564.2C613.299 2592.96 631.12 2616.2 656.069 2643.4C657.151 2644.6 658.347 2645.75 659.497 2646.88C733.532 2718.7 837.184 2720.86 922.047 2679.72C933.709 2674.15 944.852 2667.79 955.612 2660.52C957.62 2659.17 959.47 2657.59 961.342 2656.03C994.682 2628.18 1017.22 2570.04 998.72 2509.9C992.021 2488.11 985.614 2474.6 978.531 2463.41C971.448 2452.25 960.304 2446.56 939.845 2447.94C929.897 2448.62 917.986 2452.97 905.354 2460.48C892.721 2467.99 879.412 2478.64 866.442 2491.93C820.582 2535.89 739.239 2615.16 683.476 2585.13C666.31 2575.12 652.978 2560.82 642.895 2544.15C637.865 2535.8 633.646 2526.89 630.24 2517.71C580.523 2379.23 752.119 2254.82 859.471 2192.32C872.284 2185.64 885.368 2179.39 898.79 2173.7C925.611 2162.36 953.718 2153.31 983.742 2147.58C983.742 2147.58 983.764 2147.58 983.787 2147.58C1028.38 2138.7 1069.55 2143.3 1108.15 2164.75H1108.19C1155.36 2194.8 1155.36 2254.84 1143.95 2304.02C1141.47 2319.77 1138.15 2335.02 1133.57 2352.95C1128.99 2370.88 1123.17 2391.54 1115.75 2417.91C1115.75 2417.91 1109.39 2441.28 1102.6 2474.81C1100.91 2483.17 1099.17 2492.2 1097.52 2501.63C1082.41 2567.99 1092.45 2652.97 1176.77 2670.94C1191.81 2674.15 1206.34 2674.94 1220.35 2673.61C1229.26 2672.77 1237.97 2671.06 1246.45 2668.6C1533.61 2592.35 1568.37 1846.39 1568.37 1846.39C1570.74 1818.44 1572.7 1787.61 1574.01 1753.61C1591.33 1301.8 1565.51 997.253 1788.71 882.411C1795.12 879.118 1804.35 874.584 1815.78 869.238C1826.59 864.185 1839.36 858.387 1853.57 852.207C1855.21 851.485 1856.88 850.853 1858.6 850.312C1976.62 812.708 2112.69 757.983 2219.16 792.068C2365.02 843.544 2099.33 1168.29 2094.44 1175.98C2030.74 1275.86 1937.44 1374.85 1761.19 1440.29C1695.93 1461.45 1699.81 1460.81 1699.81 1460.81C1683.93 1464.94 1670.71 1482.22 1683.19 1504.82C1715.87 1564.11 1837.8 1508.05 1893 1508.03C1902.27 1508.48 1918.58 1512.47 1922.68 1534.22C1922.82 1534.96 1922.98 1535.71 1923.09 1536.45C1923.13 1536.63 1923.16 1536.83 1923.2 1537.01C1932.65 1593.02 1906.8 1663.61 1875.7 1735.93C1866.58 1761.44 1838.41 1812.47 1812.02 1852.98C1812.02 1852.98 1812.02 1853 1812.02 1853.02C1777.5 1906.06 1749.53 1954.31 1777.37 2006.06C1798.84 2045.98 1856.21 2023.52 1893.18 2001.77C1930.98 1979.55 1949.78 1952.1 1959.93 1922.68C1959.95 1922.61 1959.99 1922.57 1960.02 1922.5C1975.09 1887.33 1983.57 1752.21 1983.57 1752.21C2004.18 1519.67 1975.94 1503.11 2365.72 1452.9C2386.7 1450.19 2421.21 1448.75 2442.32 1447.89C2514.85 1444.89 2570.54 1255.56 2324.01 1308.98L2323.94 1308.96Z" fill="#C21521"/>
</svg>
