<?xml version="1.0" encoding="UTF-8"?><svg id="Layer_1" xmlns="http://www.w3.org/2000/svg" viewBox="0 0 1024.64 1277.56"><defs><style>.cls-1{letter-spacing:-.04em;}.cls-2,.cls-3{fill:#c21521;}.cls-3{font-family:Karla-Bold, Karla;font-size:85.29px;font-weight:700;}</style></defs><g><path class="cls-2" d="M378.15,528.94c3.09-2.33,10.36-.55,9.48,3.13-7.11,36.27-38.95,70.96-16.15,104.73,3.2,4.74,7.67,8.56,12.92,11.04,2.34,1.11,4.84,2.14,7.49,3.12,5.63,2.09,11.92,3.95,18.72,5.81,20.8,5.69,34.34-6.3,43.33-25.27,3-6.32,5.49-13.42,7.58-20.9,9.83-37.02,11.73-75.82,13.08-112.56,.11-6.1,.16-12.28,.13-18.52-.21-62.41-6.94-130.93-17.98-190.23-.78-4.16-1.53-8.28-2.39-12.33-8.6-40.37-8.57-43.28-12.32-63-1.31-6.83-2.79-13.78-4.55-20.53-8.81-33.76-24.62-62.88-61.46-50.18-5.07,1.85-8.57,4.48-10.84,7.9-6.88,8.62-4.14,19.99-.97,29.28,5.7,16.7,25.15,33.85,37.7,68.76,18.19,50.58,41.34,129.17,11.35,197.01-2.73,6.17-5.89,12.25-9.52,18.21-31.28,44.51-75.02,75.92-118.54,105.01-7.18,4.59-12.81,7.72-16.45,9.19-4.17,1.67-7.61-.32-9.26-4.4-10.56-26.06,46.71-212.74,47.94-218.2,13.7-54.02,36.52-124.22-16.73-164.87-13.31-11.09-43.63-11.55-50.24,11.88-14.8,52.44,.7,102.92,6.19,155.6,4.45,42.73,1.03,103.49-2.79,131.67-5.01,36.94-13.02,74.04-33.1,108.91-.15,.25-.31,.5-.49,.73-3.51,4.56-7.29,9.02-11.36,13.09-12.44,12.42-27.62,21.2-46.47,17.91-.24-.04-.49-.09-.72-.15-22.5-5.76-26.28-35.12-28.88-54.62-.84-5.35-1.55-11.05-2.13-17.11-.38-3.94-.7-8.02-.96-12.25-.26-4.16-.47-8.47-.61-12.92,0-.14,0-.28,0-.42,.61-15.36,.61-30.01,.23-44.1,0-.12,0-.24,0-.36,.2-5.3,.47-10.74,.79-16.31,2.58-44.36,8.99-97.09,19.76-157.12,1.2-6.67,2.45-13.43,3.77-20.28,6.28-37.63,17.69-72.74,23.78-109.19,.91-3.85,1.85-7.72,2.8-11.61,.96-3.89,1.94-7.8,2.93-11.73,7.39-33.13-14.93-41.94-33.23-51.39-85.21-44-65.8,148.66-69.36,210.65-7.34,264.14,20.04,374.4,96.48,364.25,3.94-.52,8-1.36,12.2-2.52,.18-.05,.37-.11,.55-.17,44.86-15.73,83.33-42.17,117.74-73.45,4.92-4.47,9.76-9.04,14.61-13.69,20.33-19.15,36.9-32.09,53.01-53.35,5.14-5.96,8.5-10.74,12.95-14.13Z"/><path class="cls-2" d="M850.47,614.1c-28.1-2.28-62.24,22.95-95.01,52.39-5.46,4.91-10.89,9.93-16.26,14.89-43.81,36.57-67.73,50.99-109.55,43.69-15.21-1.82-45.16-14.93-60.67,2.08-10.69,11.72-14.25,27.62-17.01,42.49-.92,4.96-1.53,9.97-1.89,15-.97,17.32-1.58,34.84-.66,52.09,.31,5.75,.79,11.47,1.45,17.2,2.15,40.18,20.18,80.59,53.34,102.33,6.92,4.54,15.37,6.42,23.51,4.91,.05,0,.1-.02,.15-.03,9.67-1.84,20.17-8.74,24.12-17.11,13.31-28.16-8.92-54.11-22.67-72.5-2.75-3.68-5.35-7.45-7.63-11.39-2.73-4.73-5-9.71-6.48-15.07-1.58-4.68-2.6-9.71-2.86-15.23-.32-6.9,1.31-12.73,4.27-17.75,2.96-5.02,7.27-9.23,12.28-12.86,3.35-2.44,7.01-4.62,10.81-6.66,44.69-20.54,71.27-22.14,103.86-64.01,4.37-5.61,8.77-11.3,13.04-17.02,25.64-34.32,48.76-67.83,71.28-68.89,46.59-2.19,34.65,44.13,8.91,102.57-1.84,4.17-3.81,8.38-5.71,12.69-25.18,56.98-57.78,103.3-68.18,162.58-1.23,6.61-1.83,12.73-1.67,18.24,.16,5.51,1.09,10.43,2.9,14.63,7.06,16.34,33.43,18.75,49.6,17.53,5.39-.4,9.65-1.21,11.68-2.03,11.8-3.76,19.85-12.03,24.31-20.93,16.24-32.41,16.56-133.49,39.32-196.68,2.5-6.87,4.86-13.68,6.98-20.36,8.48-26.74,13.11-51.66,7.88-70.38-5.28-15.71-13.7-43.18-53.45-46.4Z"/><path class="cls-2" d="M875.38,363.98c-15.36,2.95-37.32,9.64-38.04,9.88-109.79,36.31-69.9-16.41-28.46-77.78,2.3-3.41,4.66-6.87,7.1-10.4,30.06-50.05,92.82-93.79,77.6-152.74-20.78-81.23-126.07-36.68-195.32-25.8-.86,.14-1.73,.09-2.6,.22-6.16,.91-12.42,1.68-18.74,2.37-81.19,8.86-171.64,4.38-165.97,111.97,32.57,329.18-4.15,436.91-36.95,559.97-3.75,15.45-8.55,30.3-14.03,44.27-1.7,4.34-3.54,8.56-5.25,12.72-8.67,21.12-42.61,92.79-82.18,73.95-22.36-11.18,2.02-63.22,14.85-87.5,23.01-43.58,60.69-69.55,22.57-117.32-.96-1.2-2.01-2.41-3.15-3.62-6.8-7.22-15.48-12.37-24.81-15.73-58.21-20.94-126.9-1.52-180.32,25.93-5.71,2.94-11.32,5.99-16.8,9.19h-.01c-67.52,44.51-112.87,105.63-81.92,183.14,2.03,5.07,4.59,9.48,6.96,13.74,7.13,12.75,15.03,23.05,26.09,35.11,.48,.53,1.01,1.04,1.52,1.54,32.82,31.84,78.77,32.8,116.39,14.56,5.17-2.47,10.11-5.29,14.88-8.51,.89-.6,1.71-1.3,2.54-1.99,14.78-12.35,24.77-38.12,16.57-64.78-2.97-9.66-5.81-15.65-8.95-20.61-3.14-4.95-8.08-7.47-17.15-6.86-4.41,.3-9.69,2.23-15.29,5.56-5.6,3.33-11.5,8.05-17.25,13.94-20.33,19.49-56.39,54.63-81.11,41.32-7.61-4.44-13.52-10.78-17.99-18.17-2.23-3.7-4.1-7.65-5.61-11.72-22.04-61.39,54.03-116.54,101.62-144.25,5.68-2.96,11.48-5.73,17.43-8.25,11.89-5.03,24.35-9.04,37.66-11.58,0,0,.01,0,.02,0,19.77-3.94,38.02-1.9,55.13,7.61h.02c20.91,13.32,20.91,39.94,15.85,61.74h0c-1.1,6.98-2.57,13.74-4.6,21.69-2.03,7.95-4.61,17.11-7.9,28.8h0s-2.82,10.36-5.83,25.22c-.75,3.71-1.52,7.71-2.25,11.89-6.7,29.42-2.25,67.09,35.13,75.06,6.67,1.42,13.11,1.77,19.32,1.18,3.95-.37,7.81-1.13,11.57-2.22,127.3-33.8,142.71-364.49,142.71-364.49h0c1.05-12.39,1.92-26.06,2.5-41.13,7.68-200.29-3.77-335.3,95.18-386.21,2.84-1.46,6.93-3.47,12-5.84,4.79-2.24,10.45-4.81,16.75-7.55,.73-.32,1.47-.6,2.23-.84,52.32-16.67,112.64-40.93,159.84-25.82,64.66,22.82-53.12,166.78-55.29,170.19-28.24,44.28-69.6,88.16-147.73,117.17-28.93,9.38-27.21,9.1-27.21,9.1-7.04,1.83-12.9,9.49-7.37,19.51,14.49,26.28,68.54,1.43,93.01,1.42,4.11,.2,11.34,1.97,13.16,11.61,.06,.33,.13,.66,.18,.99,.02,.08,.03,.17,.05,.25,4.19,24.83-7.27,56.12-21.06,88.18-4.04,11.31-16.53,33.93-28.23,51.89,0,0,0,.01,0,.02-15.3,23.51-27.7,44.9-15.36,67.84,9.52,17.7,34.95,7.74,51.34-1.9,16.76-9.85,25.09-22.02,29.59-35.06,.01-.03,.03-.05,.04-.08,6.68-15.59,10.44-75.49,10.44-75.49h0c9.14-103.09-3.38-110.43,169.41-132.69,9.3-1.2,24.6-1.84,33.96-2.22,32.15-1.33,56.84-85.26-52.45-61.58Z"/></g><text class="cls-3" transform="translate(127.86 1167.29)"><tspan class="cls-1" x="0" y="0">W</tspan><tspan x="78.9" y="0">an</tspan><tspan class="cls-1" x="181.84" y="0">W</tspan><tspan x="260.74" y="0">an Ceramics</tspan></text></svg>