<?xml version="1.0" encoding="UTF-8"?><svg id="Layer_1" xmlns="http://www.w3.org/2000/svg" viewBox="0 0 1080 1080"><defs><style>.cls-1{fill:#c21521;}</style></defs><path class="cls-1" d="M436.82,535.41c2.6-1.97,8.74-.47,7.99,2.64-6,30.6-32.85,59.86-13.62,88.35,2.7,4,6.47,7.22,10.9,9.31,1.98,.93,4.09,1.8,6.32,2.63,4.75,1.76,10.05,3.33,15.79,4.9,17.55,4.8,28.97-5.32,36.55-21.32,2.53-5.33,4.63-11.32,6.39-17.63,8.29-31.23,9.9-63.96,11.03-94.96,.09-5.15,.13-10.36,.11-15.63-.18-52.65-5.86-110.45-15.17-160.48-.65-3.51-1.29-6.99-2.02-10.41-7.25-34.06-7.23-36.51-10.39-53.15-1.11-5.77-2.35-11.62-3.84-17.32-7.43-28.48-20.77-53.05-51.85-42.33-4.28,1.56-7.23,3.78-9.14,6.66-5.8,7.28-3.5,16.86-.82,24.7,4.81,14.09,21.22,28.56,31.8,58.01,15.34,42.67,34.87,108.96,9.57,166.2-2.3,5.2-4.97,10.33-8.03,15.36-26.39,37.55-63.29,64.05-100,88.59-6.05,3.87-10.8,6.52-13.88,7.75-3.52,1.41-6.42-.27-7.81-3.71-8.91-21.99,39.4-179.47,40.44-184.07,11.55-45.57,30.8-104.79-14.11-139.08-11.23-9.35-36.8-9.75-42.38,10.02-12.48,44.23,.59,86.82,5.22,131.27,3.76,36.05,.87,87.3-2.35,111.07-4.22,31.16-10.98,62.46-27.92,91.88-.12,.21-.26,.42-.41,.62-2.96,3.85-6.15,7.61-9.58,11.04-10.49,10.48-23.3,17.88-39.21,15.11-.2-.04-.41-.08-.61-.13-18.98-4.86-22.17-29.63-24.36-46.08-.71-4.51-1.31-9.32-1.79-14.43-.32-3.32-.59-6.77-.81-10.34-.22-3.51-.39-7.15-.52-10.9,0-.12,0-.24,0-.36,.51-12.96,.51-25.32,.19-37.2,0-.1,0-.2,0-.31,.17-4.47,.39-9.06,.67-13.76,2.18-37.43,7.59-81.91,16.67-132.55,1.01-5.63,2.06-11.33,3.18-17.11,5.3-31.75,14.92-61.36,20.06-92.11,.77-3.25,1.56-6.51,2.36-9.79,.81-3.28,1.64-6.58,2.47-9.89,6.23-27.95-12.59-35.38-28.03-43.35-71.88-37.12-55.51,125.41-58.51,177.7-6.19,222.83,16.91,315.84,81.39,307.28,3.32-.44,6.75-1.15,10.29-2.13,.15-.04,.31-.09,.46-.14,37.84-13.27,70.29-35.57,99.32-61.96,4.15-3.77,8.23-7.62,12.33-11.55,17.15-16.16,31.13-27.07,44.72-45.01,4.34-5.03,7.17-9.06,10.92-11.92Z"/><path class="cls-1" d="M835.26,607.25c-23.71-1.92-52.5,19.36-80.15,44.2-4.61,4.14-9.18,8.38-13.72,12.56-36.96,30.85-57.13,43.02-92.41,36.86-12.83-1.53-38.1-12.6-51.18,1.75-9.02,9.88-12.02,23.3-14.35,35.84-.77,4.18-1.29,8.41-1.59,12.66-.82,14.61-1.33,29.39-.55,43.94,.26,4.85,.67,9.68,1.22,14.51,1.81,33.89,17.02,67.98,45,86.33,5.84,3.83,12.97,5.42,19.83,4.14,.04,0,.08-.02,.12-.02,8.16-1.55,17.01-7.38,20.35-14.44,11.23-23.76-7.52-45.65-19.12-61.16-2.32-3.1-4.52-6.28-6.44-9.61-2.31-3.99-4.22-8.19-5.47-12.71-1.34-3.95-2.2-8.19-2.41-12.85-.27-5.82,1.1-10.74,3.6-14.98,2.5-4.24,6.13-7.78,10.36-10.85,2.82-2.06,5.91-3.9,9.12-5.62,37.7-17.33,60.12-18.67,87.62-53.99,3.68-4.73,7.39-9.53,11-14.36,21.63-28.95,41.13-57.22,60.13-58.12,39.3-1.85,29.23,37.22,7.52,86.52-1.55,3.52-3.21,7.07-4.82,10.71-21.24,48.07-48.74,87.15-57.52,137.15-1.04,5.58-1.54,10.74-1.41,15.39,.14,4.65,.92,8.8,2.45,12.34,5.96,13.79,28.2,15.81,41.84,14.79,4.55-.34,8.14-1.02,9.85-1.71,9.95-3.17,16.74-10.15,20.51-17.66,13.7-27.34,13.97-112.62,33.17-165.92,2.11-5.8,4.1-11.54,5.89-17.18,7.15-22.56,11.06-43.58,6.65-59.37-4.45-13.25-11.55-36.42-45.09-39.14Z"/><path class="cls-1" d="M856.28,396.25c-12.96,2.49-31.48,8.13-32.09,8.33-92.62,30.63-58.96-13.84-24.01-65.62,1.94-2.88,3.93-5.8,5.99-8.77,25.36-42.22,78.3-79.12,65.47-128.85-17.53-68.52-106.35-30.94-164.77-21.77-.73,.11-1.46,.08-2.19,.18-5.19,.77-10.48,1.42-15.81,2-68.5,7.47-144.79,3.7-140.01,94.46,27.48,277.69-3.5,368.57-31.17,472.39-3.17,13.03-7.21,25.56-11.84,37.35-1.43,3.66-2.99,7.22-4.43,10.73-7.32,17.81-35.95,78.27-69.32,62.38-18.86-9.43,1.7-53.33,12.52-73.82,19.42-36.76,51.19-58.68,19.04-98.97-.81-1.01-1.69-2.03-2.65-3.05-5.74-6.09-13.05-10.43-20.93-13.27-49.1-17.66-107.06-1.28-152.11,21.88-4.82,2.48-9.55,5.05-14.17,7.76h-.01c-56.96,37.55-95.22,89.11-69.1,154.5,1.71,4.28,3.87,8,5.87,11.59,6.01,10.76,12.68,19.45,22.01,29.62,.41,.44,.85,.87,1.28,1.3,27.69,26.86,66.45,27.67,98.18,12.29,4.36-2.08,8.53-4.47,12.55-7.18,.75-.51,1.44-1.1,2.14-1.68,12.46-10.42,20.9-32.15,13.98-54.65-2.51-8.15-4.9-13.2-7.55-17.38-2.65-4.18-6.81-6.3-14.47-5.79-3.72,.25-8.18,1.88-12.9,4.69-4.72,2.81-9.71,6.79-14.55,11.76-17.15,16.44-47.57,46.08-68.42,34.85-6.42-3.74-11.41-9.09-15.17-15.33-1.88-3.12-3.46-6.46-4.74-9.89-18.59-51.79,45.58-98.31,85.73-121.69,4.79-2.5,9.69-4.84,14.7-6.96,10.03-4.24,20.54-7.63,31.77-9.77,0,0,0,0,.01,0,16.68-3.33,32.07-1.6,46.51,6.42h.02c17.64,11.24,17.64,33.69,13.37,52.08h0c-.93,5.89-2.17,11.59-3.88,18.29-1.71,6.71-3.89,14.43-6.66,24.3h0s-2.38,8.74-4.91,21.27c-.63,3.13-1.28,6.5-1.9,10.03-5.66,24.82-1.9,56.6,29.64,63.32,5.62,1.2,11.06,1.49,16.3,1,3.33-.31,6.59-.95,9.76-1.87,107.39-28.52,120.39-307.48,120.39-307.48h0c.89-10.45,1.62-21.98,2.11-34.7,6.48-168.96-3.18-282.86,80.29-325.81,2.39-1.23,5.85-2.93,10.12-4.92,4.04-1.89,8.82-4.05,14.13-6.37,.61-.27,1.24-.5,1.88-.7,44.14-14.06,95.02-34.53,134.84-21.79,54.54,19.25-44.81,140.7-46.64,143.57-23.82,37.35-58.71,74.37-124.62,98.84-24.41,7.91-22.96,7.68-22.96,7.68-5.94,1.55-10.88,8-6.22,16.46,12.23,22.17,57.82,1.21,78.46,1.2,3.47,.17,9.57,1.66,11.1,9.79,.05,.28,.11,.56,.15,.84,.01,.07,.03,.14,.04,.21,3.53,20.95-6.14,47.34-17.77,74.39-3.41,9.54-13.94,28.62-23.81,43.78,0,0,0,0,0,.01-12.9,19.83-23.37,37.88-12.96,57.23,8.03,14.93,29.49,6.53,43.31-1.6,14.14-8.31,21.17-18.57,24.96-29.57,.01-.03,.02-.04,.03-.07,5.63-13.15,8.8-63.68,8.8-63.68h0c7.71-86.96-2.85-93.16,142.91-111.94,7.84-1.01,20.75-1.55,28.65-1.87,27.13-1.12,47.95-71.92-44.25-51.95Z"/></svg>