<svg width="125" height="125" viewBox="0 0 279 50" fill="none" stroke-width="10" xmlns="http://www.w3.org/2000/svg">
<path d="M15.625 49H4.40341V12.6364H16.1222C19.6496 12.6364 22.6681 13.3643 25.1776 14.8203C27.687 16.2644 29.6106 18.3419 30.9482 21.0526C32.2857 23.7514 32.9545 26.983 32.9545 30.7472C32.9545 34.535 32.2798 37.7962 30.9304 40.5305C29.581 43.2531 27.616 45.3482 25.0355 46.8161C22.455 48.272 19.3182 49 15.625 49ZM8.80682 45.0938H15.3409C18.3475 45.0938 20.8393 44.5137 22.8161 43.3537C24.7929 42.1937 26.2666 40.5424 27.2372 38.3999C28.2079 36.2573 28.6932 33.7064 28.6932 30.7472C28.6932 27.8116 28.2138 25.2843 27.255 23.1655C26.2962 21.0348 24.8639 19.4013 22.9581 18.2649C21.0523 17.1167 18.679 16.5426 15.8381 16.5426H8.80682V45.0938ZM40.3409 49V12.6364H52.6278C55.4688 12.6364 57.8007 13.1217 59.6236 14.0923C61.4465 15.0511 62.7959 16.371 63.6719 18.0518C64.5478 19.7327 64.9858 21.6444 64.9858 23.7869C64.9858 25.9295 64.5478 27.8293 63.6719 29.4865C62.7959 31.1437 61.4524 32.4458 59.6413 33.3928C57.8303 34.3279 55.5161 34.7955 52.6989 34.7955H42.7557V30.8182H52.5568C54.4981 30.8182 56.0606 30.5341 57.2443 29.9659C58.4399 29.3977 59.304 28.5928 59.8366 27.5511C60.3812 26.4976 60.6534 25.2429 60.6534 23.7869C60.6534 22.331 60.3812 21.0585 59.8366 19.9695C59.2921 18.8804 58.4221 18.04 57.2266 17.4482C56.031 16.8445 54.4508 16.5426 52.4858 16.5426H44.7443V49H40.3409ZM57.4574 32.6648L66.4062 49H61.2926L52.4858 32.6648H57.4574ZM73.8148 49H69.1983L82.5506 12.6364H87.0961L100.448 49H95.8319L84.9654 18.3892H84.6813L73.8148 49ZM75.5194 34.7955H94.1273V38.7017H75.5194V34.7955ZM129.261 24C128.871 22.8045 128.356 21.7332 127.717 20.7862C127.089 19.8274 126.338 19.0107 125.462 18.3359C124.598 17.6612 123.615 17.1463 122.514 16.7912C121.413 16.4361 120.206 16.2585 118.892 16.2585C116.738 16.2585 114.779 16.8149 113.015 17.9276C111.251 19.0402 109.848 20.6797 108.807 22.8459C107.765 25.0121 107.244 27.6695 107.244 30.8182C107.244 33.9669 107.771 36.6243 108.825 38.7905C109.878 40.9567 111.304 42.5961 113.104 43.7088C114.903 44.8215 116.927 45.3778 119.176 45.3778C121.259 45.3778 123.094 44.9339 124.68 44.0462C126.278 43.1465 127.521 41.88 128.409 40.2464C129.309 38.6011 129.759 36.6657 129.759 34.4403L131.108 34.7244H120.17V30.8182H134.02V34.7244C134.02 37.7192 133.381 40.3234 132.102 42.5369C130.836 44.7505 129.084 46.4669 126.847 47.6861C124.621 48.8935 122.064 49.4972 119.176 49.4972C115.956 49.4972 113.127 48.7396 110.689 47.2244C108.262 45.7093 106.368 43.5549 105.007 40.7614C103.658 37.9678 102.983 34.6534 102.983 30.8182C102.983 27.9418 103.368 25.3553 104.137 23.0589C104.918 20.7507 106.019 18.7857 107.44 17.1641C108.86 15.5424 110.541 14.2995 112.482 13.4354C114.424 12.5713 116.56 12.1392 118.892 12.1392C120.81 12.1392 122.597 12.4292 124.254 13.0092C125.923 13.5774 127.409 14.3883 128.711 15.4418C130.025 16.4834 131.12 17.7322 131.996 19.1882C132.872 20.6323 133.475 22.2363 133.807 24H129.261Z" fill="#EC2830"/>
</svg>
